<svg width="22" height="21" viewBox="0 0 22 21" fill="none" xmlns="http://www.w3.org/2000/svg">
<path d="M12.3704 0.589689C11.5219 0.10194 10.4781 0.10194 9.62952 0.589689C9.24999 0.807847 8.96249 1.14942 8.69782 1.53294C8.43473 1.91416 8.13955 2.42097 7.77541 3.04616L7.13787 4.14076C6.90424 4.54188 6.83834 4.64755 6.76327 4.7306C6.64689 4.85937 6.50496 4.96248 6.34654 5.03338C6.24435 5.07911 6.12349 5.10912 5.66981 5.20737L4.43179 5.47546C3.72467 5.62857 3.15143 5.7527 2.70757 5.88511C2.26104 6.01832 1.84734 6.18618 1.52258 6.47973C0.796486 7.13601 0.473924 8.12875 0.675588 9.08649C0.765788 9.51486 1.00181 9.89383 1.28476 10.2641C1.56602 10.6321 1.95681 11.0694 2.43888 11.6089L3.2829 12.5535C3.59218 12.8997 3.67232 12.995 3.72811 13.0921C3.81461 13.2425 3.86882 13.4094 3.88729 13.582C3.89921 13.6933 3.8904 13.8175 3.84364 14.2793L3.71604 15.5396C3.64315 16.2594 3.58406 16.843 3.57283 17.306C3.56153 17.7719 3.59335 18.2172 3.77216 18.6168C4.17196 19.5101 5.01643 20.1237 5.98961 20.2278C6.42489 20.2744 6.85824 20.1671 7.2978 20.0124C7.73472 19.8586 8.27143 19.6221 8.93351 19.3303L10.0927 18.8195C10.5174 18.6323 10.6329 18.5856 10.7424 18.5625C10.9123 18.5267 11.0877 18.5267 11.2575 18.5625C11.3671 18.5856 11.4825 18.6323 11.9073 18.8195L13.0664 19.3303C13.7285 19.6221 14.2652 19.8586 14.7021 20.0124C15.1417 20.1671 15.5751 20.2744 16.0103 20.2278C16.9835 20.1237 17.828 19.5101 18.2278 18.6168C18.4066 18.2172 18.4384 17.7719 18.4271 17.306C18.4159 16.843 18.3568 16.2595 18.2839 15.5396L18.1563 14.2793C18.1095 13.8175 18.1007 13.6933 18.1127 13.582C18.1311 13.4094 18.1853 13.2425 18.2718 13.0921C18.3276 12.995 18.4078 12.8997 18.7171 12.5535L19.5611 11.6089C20.0432 11.0694 20.4339 10.6321 20.7152 10.2641C20.9981 9.89383 21.2342 9.51486 21.3244 9.08649C21.526 8.12875 21.2035 7.13601 20.4774 6.47973C20.1526 6.18618 19.7389 6.01832 19.2924 5.88511C18.8485 5.7527 18.2753 5.62858 17.5682 5.47546L16.3301 5.20737C15.8765 5.10912 15.7556 5.07911 15.6534 5.03338C15.495 4.96248 15.3531 4.85937 15.2367 4.7306C15.1616 4.64755 15.0957 4.54188 14.8621 4.14076L14.2246 3.04619C13.8604 2.42101 13.5652 1.91415 13.3021 1.53294C13.0375 1.14942 12.75 0.807847 12.3704 0.589689Z" fill="#FFC83D"/>
</svg>
